<svg xmlns="http://www.w3.org/2000/svg" viewBox="0 0 40 40">
  <defs>
    <linearGradient id="bg" x1="0" y1="0" x2="1" y2="1">
      <stop offset="0%" stop-color="#3B82F6"/>
      <stop offset="100%" stop-color="#6366F1"/>
    </linearGradient>
  </defs>
  <!-- 圆角方形背景 -->
  <rect width="40" height="40" rx="10" fill="url(#bg)"/>
  <!-- 文档主体 -->
  <path d="M11 6h13.1a2 2 0 011.4.6l5.9 5.9a2 2 0 01.6 1.4V32a2 2 0 01-2 2H11a2 2 0 01-2-2V8a2 2 0 012-2z" fill="white" opacity="0.95"/>
  <!-- 折角 -->
  <path d="M24 6v6a1 1 0 001 1h6" fill="none" stroke="#3B82F6" stroke-width="2" stroke-linecap="round" stroke-linejoin="round"/>
  <!-- 标题行 -->
  <path d="M13 19.5h9" stroke="#6366F1" stroke-width="2.5" stroke-linecap="round"/>
  <!-- 正文行 1 -->
  <path d="M13 23.5h14" stroke="#94A3B8" stroke-width="2" stroke-linecap="round"/>
  <!-- 正文行 2 -->
  <path d="M13 27.5h11" stroke="#CBD5E1" stroke-width="2" stroke-linecap="round"/>
</svg>
